<svg width="69.999px" height="69.999px" viewBox="0 -11.18 69.999 69.999" xmlns:dc="http://purl.org/dc/elements/1.1/" xmlns:cc="http://creativecommons.org/ns#" xmlns:rdf="http://www.w3.org/1999/02/22-rdf-syntax-ns#" xmlns="http://www.w3.org/2000/svg">
    <metadata>
        <rdf:RDF>
            <cc:Work>
                <dc:subject>
                    Network
                </dc:subject>
                <dc:identifier>
                    content-delivery-network-cdn
                </dc:identifier>
                <dc:title>
                    Content Delivery Network (CDN)
                </dc:title>
                <dc:format>
                    image/svg+xml
                </dc:format>
                <dc:publisher>
                    Amido Limited
                </dc:publisher>
                <dc:creator>
                    Richard Slater
                </dc:creator>
                <dc:type rdf:resource="http://purl.org/dc/dcmitype/StillImage"/>
            </cc:Work>
        </rdf:RDF>
    </metadata>
    <path d="m -134.73689,547.80281 c -2.83803,-0.4798 -5.15501,-1.6594 -7.31738,-3.7253 -3.76731,-3.5993 -5.21055,-9.2617 -3.61132,-14.1686 1.23516,-3.7898 3.86037,-6.7734 7.45394,-8.4714 0.86135,-0.407 0.86567,-0.4119 0.78299,-0.8931 -0.4327,-2.5179 -0.37212,-4.237 0.21737,-6.1689 0.39133,-1.2826 1.37956,-3.1052 2.21812,-4.0911 2.40512,-2.8276 5.40718,-4.2284 9.02591,-4.2116 3.22111,0.015 5.7174,1.0412 8.18677,3.3657 l 0.69859,0.6576 0.33189,-0.7174 c 1.45499,-3.1451 4.72382,-6.3603 7.9933,-7.862 1.48383,-0.6816 3.8113,-1.3734 3.8113,-1.1328 0,0.022 -1.82658,4.9217 -4.05908,10.8884 -2.32461,6.2129 -4.0419,10.9955 -4.01888,11.1924 l 0.0402,0.3438 3.77844,0.069 c 2.07814,0.038 3.85573,0.1188 3.95019,0.1799 0.0945,0.061 0.17174,0.2311 0.17174,0.3776 0,0.1466 -1.49028,3.899 -3.31173,8.3388 -4.012,9.7793 -3.86655,9.4133 -3.71867,9.3557 0.1436,-0.056 22.076195,-25.0491 22.387355,-25.5114 0.18499,-0.2748 0.18796,-0.3388 0.0207,-0.4457 -0.11411,-0.073 -1.995,-0.088 -4.52672,-0.036 -4.46253,0.092 -4.94286,0.049 -4.94286,-0.4435 0,-0.2596 6.72529,-11.601 6.87925,-11.601 0.19777,0 1.67318,1.2939 2.60561,2.2851 2.14577,2.281 3.63651,5.3049 4.1827,8.4842 0.2618,1.524 0.26247,4.0676 0.001,5.5123 -0.24762,1.3705 -0.25029,1.5801 -0.0201,1.5801 0.35775,0 2.91888,1.3453 3.73191,1.9603 2.47741,1.8739 4.36131,4.6628 5.17272,7.6575 0.27541,1.0165 0.31563,1.4797 0.31022,3.5724 -0.006,2.2031 -0.0372,2.508 -0.37638,3.641 -1.4756,4.9295 -5.04791,8.4424 -9.96785,9.8019 l -1.32161,0.3652 -22.808045,0.022 c -19.05187,0.018 -22.99644,-0.01 -23.95208,-0.1713 z" fill="#00bcf2" transform="translate(146.31 -500.335)"/>
</svg>
