<?xml version="1.0" encoding="UTF-8"?>
<svg width="12px" height="12px" viewBox="0 0 12 12" version="1.1" xmlns="http://www.w3.org/2000/svg" xmlns:xlink="http://www.w3.org/1999/xlink">
    <!-- Generator: Sketch 55.2 (78181) - https://sketchapp.com -->
    <title>Shape</title>
    <desc>Created with Sketch.</desc>
    <g id="界面2" stroke="none" stroke-width="1" fill="none" fill-rule="evenodd">
        <g id="违规检测-存在违规风险" transform="translate(-512.000000, -329.000000)" fill="#F5222D" fill-rule="nonzero">
            <g id="编组-10" transform="translate(480.000000, 178.000000)">
                <g id="编组-11" transform="translate(32.000000, 109.000000)">
                    <path d="M6,42.84375 C6.69609375,42.84375 7.37109375,42.9796875 8.00625,43.2480469 C8.6203125,43.5082031 9.17109375,43.8796875 9.64570313,44.353125 C10.1191406,44.8265625 10.4917969,45.3785156 10.7507812,45.9925781 C11.0203125,46.6289062 11.15625,47.3039062 11.15625,48 C11.15625,48.6960938 11.0203125,49.3710938 10.7519531,50.00625 C10.4917969,50.6203125 10.1203125,51.1710937 9.646875,51.6457031 C9.1734375,52.1191406 8.62148438,52.4917969 8.00742188,52.7507813 C7.37109375,53.0203125 6.69609375,53.15625 6,53.15625 C5.30390625,53.15625 4.62890625,53.0203125 3.99375,52.7519531 C3.3796875,52.4917969 2.82890625,52.1203125 2.35429688,51.646875 C1.88085938,51.1734375 1.50820312,50.6214844 1.24921875,50.0074219 C0.9796875,49.3710938 0.84375,48.6960938 0.84375,48 C0.84375,47.3039062 0.9796875,46.6289062 1.24804688,45.99375 C1.50820312,45.3796875 1.8796875,44.8289063 2.353125,44.3542969 C2.8265625,43.8808594 3.37851563,43.5082031 3.99257813,43.2492187 C4.62890625,42.9796875 5.30390625,42.84375 6,42.84375 L6,42.84375 Z M6,42 C2.6859375,42 0,44.6859375 0,48 C0,51.3140625 2.6859375,54 6,54 C9.3140625,54 12,51.3140625 12,48 C12,44.6859375 9.3140625,42 6,42 L6,42 Z M6,49.5 C5.74101562,49.5 5.53125,49.2902344 5.53125,49.03125 L5.53125,44.7070312 C5.53125,44.4480469 5.74101562,44.2382812 6,44.2382812 C6.25898438,44.2382812 6.46875,44.4480469 6.46875,44.7070312 L6.46875,49.03125 C6.46875,49.2902344 6.25898438,49.5 6,49.5 Z M5.47265625,50.7773438 C5.47265625,51.0685877 5.70875609,51.3046875 6,51.3046875 C6.29124391,51.3046875 6.52734375,51.0685877 6.52734375,50.7773438 C6.52734375,50.4860998 6.29124391,50.25 6,50.25 C5.70875609,50.25 5.47265625,50.4860998 5.47265625,50.7773438 Z" id="Shape"></path>
                </g>
            </g>
        </g>
    </g>
</svg>