<svg width="360" height="200" fill="none" xmlns="http://www.w3.org/2000/svg"><rect width="360" height="200" rx="8" fill="#F4F8FD"/><path d="M112.51 130.42l1.011-78.823v-3.95a6.303 6.303 0 016.319-6.302h92.768c3.454 0 6.319 2.773 6.319 6.302v82.689h-95.885" fill="#C6DEF6"/><path d="M182.307 113.668c11.726-8.22 14.529-24.394 6.261-36.127-8.268-11.733-24.477-14.58-36.202-6.361-11.726 8.22-14.53 24.394-6.261 36.127 8.268 11.732 24.476 14.58 36.202 6.361z" fill="#fff"/><path d="M113.521 57.815V47.48c0-4.118 2.781-7.479 6.235-7.479h92.852c3.454 0 6.319 3.361 6.319 7.479v10.336H113.521zm50.302 8.824c-6.825.672-13.313 4.117-17.694 9.327-4.466 5.21-6.741 12.101-6.404 18.908a27.004 27.004 0 008.257 18.151c4.971 4.79 11.543 7.479 18.453 7.479 6.824.084 13.481-2.857 18.115-7.563.084-.084.084-.252 0-.42-.084-.084-.253-.084-.337 0-5.056 4.034-11.375 6.218-17.694 6.05-6.319-.252-12.47-2.689-16.936-7.142-4.55-4.37-7.162-10.337-7.414-16.64-.253-6.218 1.853-12.52 5.982-17.226 4.044-4.706 9.858-7.9 16.093-8.571 6.235-.757 12.554 1.008 17.61 4.79 5.055 3.781 8.51 9.327 9.605 15.546.59 3.109.505 6.218 0 9.328-.253 1.596-.59 3.193-1.011 4.621-.337.841 1.179 1.513 1.517.589.674-1.597 1.011-3.278 1.348-4.874.589-3.278.842-6.723.252-10.084-2.527-13.95-15.503-23.782-29.742-22.27z" fill="#5198D9"/><path d="M221.876 57.815c-9.269.757-18.537.672-27.889.757l-27.974.084-27.889-.169c-9.268 0-18.536 0-27.889-.756v-.42c9.268-.756 18.537-.672 27.889-.756l27.889-.084 27.889.084c9.269 0 18.537 0 27.89.756v.42h.084v.084zm-73.051 43.278c-.337-.841-1.264-1.261-2.022-.925-.843.336-1.264 1.261-.927 2.017.337.84 1.264 1.26 2.022.924.843-.336 1.264-1.26.927-2.016zm-3.033-6.723c-.843-.084-1.517-.84-1.517-1.68 0-.841.842-1.513 1.685-1.513.843.084 1.517.84 1.517 1.68-.085.925-.843 1.513-1.685 1.513zm1.769-8.908c-.758-.42-1.011-1.344-.59-2.185.421-.756 1.348-1.008 2.191-.588.758.42 1.011 1.345.59 2.185-.506.756-1.433 1.008-2.191.588zm5.308-7.31c-.505-.673-.337-1.681.337-2.186.674-.504 1.685-.336 2.191.337.505.672.337 1.68-.337 2.184-.674.589-1.685.42-2.191-.336zm7.92-4.37c-.168-.84.422-1.681 1.264-1.85.843-.167 1.685.421 1.854 1.261.168.84-.421 1.681-1.264 1.85-.843.167-1.685-.337-1.854-1.261zm9.016-.589c.168-.84 1.095-1.344 1.938-1.176.842.168 1.348 1.092 1.179 1.933-.168.84-1.095 1.344-1.938 1.176a1.684 1.684 0 01-1.179-1.933zm8.51 3.278c.59-.673 1.516-.757 2.275-.252.674.588.758 1.512.253 2.269-.506.756-1.517.756-2.275.252-.759-.589-.843-1.597-.253-2.27zm6.235 6.47a1.505 1.505 0 012.106.757 1.497 1.497 0 01-.758 2.1c-.843.337-1.769.084-2.106-.756-.338-.84 0-1.68.758-2.1zm2.949 8.572c.842 0 1.601.672 1.601 1.512s-.674 1.597-1.517 1.597c-.842 0-1.601-.672-1.601-1.513 0-.84.674-1.596 1.517-1.596zm-.927 8.991c.843.336 1.18 1.261.843 2.101-.337.84-1.264 1.177-2.107.84-.842-.336-1.179-1.26-.842-2.1.337-.841 1.263-1.177 2.106-.841z" fill="#2271B1"/><path d="M182.696 81.008c-.168-.084-.337-.084-.505-.084-3.202 1.513-5.983 3.698-8.679 5.799-.842.672-2.865 2.269-4.297 3.277-.674-.42-1.432-.588-2.275-.588-2.359.084-4.213 2.016-4.128 4.37.084 2.352 2.022 4.201 4.381 4.117 2.359-.084 4.213-2.017 4.129-4.37 0-.504-.085-.924-.253-1.344 1.179-.925 2.949-2.437 4.044-3.362 2.696-2.184 5.393-4.453 7.583-7.226a.405.405 0 000-.589zM167.193 96.05c-1.264.084-2.359-1.008-2.444-2.269-.084-1.26 1.012-2.353 2.275-2.437 1.264-.084 2.36 1.009 2.444 2.27 0 1.344-1.011 2.436-2.275 2.436z" fill="#2FB41F"/><path d="M268.133 135.126s-.421-4.958.084-8.571l.927-6.975c.421-2.941 2.865-5.21 5.73-5.21h9.352c3.455 0 6.235 3.109 5.73 6.722l-.927 6.975a6.148 6.148 0 01-1.77 3.614" fill="#fff"/><path d="M288.945 128.067c-7.584 1.009-13.819 4.874-14.493 8.488-.758 3.529-1.853 7.731-1.853 7.731h14.576l1.77-16.219z" fill="#fff"/><path d="M290.124 118.488c-.674-2.353-2.78-4.286-5.224-4.538-.674-.084-1.179-.084-1.769-.084h-8.51c-1.18 0-2.444.504-3.37 1.176-.927.756-1.686 1.765-2.107 2.857-.253.589-.337 1.177-.421 1.765l-.253 1.681-.421 3.361c-.169 1.092-.337 2.353-.337 3.445-.085 2.269.084 4.622.337 6.807 0 .084.084.084.084-.084.084 0 .084 0 .084-.084 0-2.269 0-4.538.169-6.723.084-1.092.253-2.269.421-3.361l.506-3.361.252-1.681c0-.588.169-1.008.337-1.513.337-.924 1.012-1.848 1.854-2.521a4.587 4.587 0 012.865-1.008h10.111c2.19.168 3.96 1.849 4.634 3.866.168.588.253 1.008.253 1.596.084.252 0 .588 0 .841l-.085.924-.421 3.361c-.168.925-.253 1.933-.337 2.857-.168 0-.421 0-.674.084l-.843.084c-.589.085-1.011.253-1.6.337-1.012.252-2.023.588-3.034.924-2.022.756-4.044 1.681-5.729 3.025-.927.672-1.601 1.429-2.275 2.437-.253.504-.506 1.009-.674 1.597l-.337 1.512c-.506 2.101-.927 4.202-1.517 6.219v.084c0 .084 0 .168.084.252-.252.84-.337 1.765-.505 2.689l-.506 3.782c-.252 2.521-.674 4.958-.674 7.563 0 .084.084.168.169.168a.18.18 0 00.168-.168c.59-2.521.927-5.042 1.18-7.563.168-1.261.337-2.521.421-3.782.084-.756.169-1.597.169-2.437l14.492-.084c.168 0 .421-.168.421-.42.337-2.773.59-5.462.843-8.235l.674-7.059c0-.084.084-.168.084-.252.337-1.093.421-2.269.59-3.362l.505-3.361.085-.924c.084-.336.084-.589.084-.925 0-.588-.084-1.26-.253-1.764zM288.692 130l-.843 6.387c-.421 2.521-.674 5.042-1.011 7.563l-13.65-.084c.506-1.849.927-3.782 1.433-5.715l.337-1.512c.084-.504.337-.925.59-1.345.505-.924 1.179-1.596 2.022-2.269 1.601-1.26 3.454-2.269 5.392-3.025.927-.42 1.938-.756 2.949-1.008.506-.168 1.011-.252 1.517-.42l.842-.168c.169-.084.338-.084.422-.084V130z" fill="#64CA43"/><path d="M91.698 128.235c4.045-3.025 4.213-9.664.506-16.975-3.707-7.311-14.24-14.706-19.042-7.395-4.803 7.311 9.858 28.572 16.009 25.295l2.527-.925zm6.32 4.034c-2.612-4.202-.927-11.177 4.213-15.714l1.432 4.958.758-5.715c1.938-.672 4.971-.672 6.657 1.093 6.74 7.143-5.393 18.403-10.954 16.05l-2.106-.672zm21.738 3.613c-1.769-.168-2.612-1.68-2.612-1.68s1.095-1.261 2.865-1.093c.927.084 1.517.588 1.938 1.009.337.42.253 1.008-.253 1.344-.506.336-1.095.588-1.938.42zm3.623-3.445c.59-.168.843-.84.59-1.261-.337-.588-.843-1.176-1.685-1.428-1.601-.588-2.949.42-2.949.42s.421 1.681 2.106 2.269c.759.252 1.348.168 1.938 0zm-6.403 1.681s0-1.849-1.517-2.69c-.758-.42-1.517-.504-2.106-.42-.59.084-.927.673-.759 1.093.169.588.59 1.176 1.348 1.68 1.686 1.009 3.034.337 3.034.337zm2.106-4.034s.253-1.765-1.011-2.857c-.59-.504-1.18-.672-1.769-.757-.759-.084-1.264.589-1.096 1.261.169.588.506 1.092 1.011 1.597 1.433 1.176 2.865.756 2.865.756z" fill="#fff"/><path d="M275.8 121.933a.664.664 0 00-.674.672c0 .42.253.672.674.672a.664.664 0 00.674-.672c0-.42-.252-.672-.674-.672zm6.994 0a.664.664 0 00-.674.672c0 .42.252.672.674.672.421 0 .674-.252.674-.672a.664.664 0 00-.674-.672zM78.133 107.395c-.084-.084-.084-.168-.084-.252.084-.084.168-.084.252-.084 2.612 1.428 4.803 3.277 6.741 5.462 1.938 2.185 3.455 4.706 4.634 7.479 1.18 2.773 1.854 5.546 2.36 8.487a34.97 34.97 0 01.252 8.404h3.96c.085-1.345.506-2.69 1.096-3.95.674-1.345 1.432-2.689 2.359-3.866 1.938-2.353 4.213-4.369 6.656-6.05.084-.084.169 0 .253 0 .084.084 0 .168 0 .252-2.106 2.101-4.381 4.034-6.067 6.387-.926 1.092-1.685 2.353-2.359 3.613a27.289 27.289 0 00-1.516 3.614h5.224c.168 0 .337.168.421.336l2.359 7.983v.084c.337 3.109-.59 6.47-2.528 8.907-.926 1.177-2.19 2.269-3.623 2.942-1.348.756-2.949 1.008-4.55.924-1.516.084-3.117-.252-4.55-.924-1.432-.757-2.696-1.681-3.623-2.942-1.938-2.521-2.864-5.798-2.527-8.907v-.084l2.359-7.983c.084-.168.253-.336.421-.336h5.983c-.253-2.774-.422-5.463-.843-8.236a40.007 40.007 0 00-2.36-8.235c-1.095-2.689-2.611-5.126-4.38-7.311-1.77-2.185-3.96-4.118-6.32-5.714zm8.173 30.336l-2.36 7.647v-.084a11.537 11.537 0 00.338 4.454c.421 1.428 1.01 2.857 1.938 4.033 1.77 2.437 4.634 4.118 7.667 4.202v-.168c1.517 0 2.95-.42 4.382-1.093 1.263-.756 2.527-1.68 3.37-2.857 1.769-2.437 2.612-5.462 2.19-8.487v.084l-2.359-7.647H86.306v-.084zm200.532 9.412c-.168-.841-.253-1.681-.505-2.521h-.506c0 .84.084 1.68.084 2.521.085 1.26.253 2.521.422 3.781.337 2.605.674 5.042 1.179 7.563 0 .084.084.168.169.168a.18.18 0 00.168-.168c-.084-2.521-.421-5.042-.674-7.563 0-1.26-.168-2.437-.337-3.781zm-5.055 11.344l-10.869-.168v.168c0 .084-.085.168-.169.168s-.169-.084-.169-.168v-.168h-1.348l-12.554-.084h-3.876c.506-2.437.843-4.874 1.18-7.311.168-1.26.337-2.521.421-3.781.169-.925.169-1.933.169-2.942.252.169.589.253.842.337.843.168 1.433.084 2.191.084h4.213c3.539-.084 6.993-.084 10.448-.168 0-.084-.085-.084-.085-.169v-.084c0-.084.085-.168.085-.252-3.455-.084-6.994-.084-10.448-.168h-4.213c-.758 0-1.432 0-2.022-.084a3.364 3.364 0 01-1.601-.924c-.927-.84-1.096-2.269-.674-3.361.505-1.093 1.685-1.933 2.865-1.933l16.851-.084h.758l.169-.757h-.927l-16.851-.084c-.843 0-1.77.337-2.444.841l.169-.673c.168-.504.252-.84.421-1.176.758-1.597 2.191-2.857 3.623-3.782 2.949-1.932 6.319-3.025 9.774-3.865v-.252c-1.77.168-3.539.504-5.224 1.008-1.77.588-3.455 1.261-5.056 2.353-1.601 1.009-3.117 2.269-4.044 4.118-.168.504-.337 1.008-.421 1.428l-.253 1.345c0 .252-.084.504-.084.672-.085.168-.169.252-.169.42-.674 1.429-.253 3.194.927 4.37.253.252.506.42.758.588-.252 1.093-.505 2.101-.589 3.194l-.506 3.781c-.253 2.437-.59 4.79-.674 7.311l-20.896-.168-50.386-.084-50.385.084c-16.768.084-33.62.168-50.386.588-.084 0-.169.084-.169.168s.085.168.169.168c16.767.421 33.618.505 50.386.589l50.385.084 50.386-.084 25.193-.168 12.554-.085 12.555-.168c.168-.084.337-.168.337-.336s-.169-.336-.337-.336z" fill="#64CA43"/><path d="M270.913 158.32l10.87.168c.168 0 .337.168.337.336s-.169.252-.337.336l-12.555.168-12.554.084-25.193.168-50.386.084-50.385-.084h-.064c-16.746-.084-33.576-.169-50.322-.588-.084 0-.169-.084-.169-.168s.085-.168.169-.168c16.746-.42 33.576-.504 50.322-.588l.064-.001 50.385-.084 50.386.084 20.896.169h4.297l12.554.084h1.685z" fill="#64CA43"/><path d="M84.368 128.908a22.184 22.184 0 01-3.791-3.026c-2.275-2.352-4.13-4.873-5.73-7.731-1.517-2.857-2.865-5.882-3.117-9.075-.169-1.597-.085-3.362.842-4.874.927-1.429 2.19-2.689 3.876-3.193 1.685-.505 3.37-.337 4.971.252 1.517.588 2.95 1.344 4.297 2.353 2.612 1.932 4.803 4.453 6.404 7.226 1.516 2.858 2.696 5.967 2.864 9.16.085 1.597 0 3.277-.59 4.79s-1.516 2.857-2.864 3.866h-.084c.168-.337.168-.337.252-.421 1.18-.924 2.107-2.437 2.528-3.865.421-1.513.506-3.025.337-4.706-.337-3.109-1.432-6.134-2.949-8.824-1.516-2.689-3.707-5.042-6.235-6.89a16.215 16.215 0 00-4.128-2.185c-1.433-.504-2.95-.672-4.466-.168-1.348.504-2.612 1.512-3.37 2.857-.759 1.26-.927 2.857-.759 4.37.337 3.025 1.517 6.05 2.95 8.823 1.432 2.773 3.285 5.378 5.392 7.731a20.327 20.327 0 003.539 3.025c.674.421 1.348.757 2.106.925.758.168 1.517.168 2.19-.168.085-.084.17 0 .254.084 0 .084 0 .168-.085.252-.758.42-1.6.504-2.443.336-.843-.168-1.517-.504-2.19-.924zm27.552-11.513c-.421-.588-.927-1.008-1.516-1.429-.675-.336-1.264-.588-2.023-.756-1.348-.252-2.78-.084-4.128.336-.169 0-.337.168-.337.336l-.506 3.698-.927-3.109c0-.084 0-.084-.084-.168a.408.408 0 00-.59 0c-2.19 2.016-3.876 4.621-4.718 7.395-.421 1.428-.674 2.941-.59 4.453.084 1.429.59 2.942 1.348 4.202 0 0 .084 0 .169-.168v-.084c-.759-1.177-1.011-2.689-1.011-4.118 0-1.344.252-2.857.758-4.201.927-2.521 2.359-4.79 4.297-6.555l1.18 4.202v.168h.084v.084c0 .168.168.336.337.336.253.084.506-.084.506-.336l.758-5.462c2.275-.589 5.055-.337 6.403 1.68.843.925 1.264 2.185 1.348 3.362.085 1.176-.168 2.437-.674 3.613-.926 2.437-2.78 4.454-4.718 5.966-1.011.841-2.191 1.429-3.37 1.849-1.18.42-2.528.672-3.708.168-.084 0-.252 0-.252.084s0 .252.084.252c1.264.589 2.78.505 4.044.084 1.264-.42 2.528-.924 3.623-1.764 2.191-1.597 4.045-3.698 5.056-6.219.59-1.176.842-2.689.758-4.033-.253-1.345-.674-2.689-1.601-3.866zm-6.993 23.529c-3.539-.336-7.078-.252-10.617-.336l-5.308.084c-1.77.084-3.539.084-5.308.337-.084.168-.084.168 0 .168 1.77.252 3.539.252 5.308.336l5.308.084c3.54-.084 7.078-.084 10.617-.336a.18.18 0 00.168-.168c0-.084-.084-.169-.168-.169zm19.21-10.084c-.337-.672-.758-1.092-1.348-1.428-.589-.252-1.264-.42-1.938-.336-.168 0-.252 0-.421.084 0-.084 0-.084-.084-.168-.084-.168-.169-.168-.169-.084l-.252-.252c-.169.084-.253.252-.337.336 0-.084 0-.168-.085-.252-.084-.589-.421-1.093-.842-1.513-.506-.42-.927-.756-1.517-.924-.084 0-.253-.084-.421-.084h-.506c-.421 0-.842.168-1.011.504-.253.336-.421.672-.421 1.008 0 .336.168.672.253.925a3.329 3.329 0 001.011 1.344c.421.336.927.588 1.516.672h.506c-.421.589-.843 1.261-1.095 1.849a2.521 2.521 0 00-1.011-1.26c-.506-.421-1.012-.589-1.601-.673h-.927c-.421 0-.843.252-1.011.589-.253.336-.253.756-.169 1.092.169.336.253.588.421.84.338.505.843.925 1.264 1.177.506.252 1.011.42 1.601.42.169 0 .422 0 .674-.084-.168.84-.337 1.765-.421 2.689-.084-.168-.253-.336-.337-.504a2.262 2.262 0 00-1.432-.925c-.506-.084-1.18-.168-1.77 0-.253.084-.59.169-.842.337-.337.168-.674.504-.759.924-.084.42 0 .84.253 1.092.253.253.421.505.674.673.506.42 1.011.672 1.601.756.59.084 1.095 0 1.685-.168.253-.168.506-.252.758-.42l.085-.084v2.857c-1.854-.084-3.708-.168-5.561-.168h-.169c-.168.084-.253.336-.168.504l1.685 3.361a18.666 18.666 0 00-1.348 3.614c-.337 1.344-.59 2.773-.422 4.117.169 1.429.843 2.858 1.938 3.782 1.011.756 2.275 1.176 3.539 1.26.084.084.169.084.337.084h.169c1.348 0 2.78-.336 3.876-1.26 1.095-.924 1.769-2.437 1.938-3.782.168-1.428-.085-2.857-.422-4.117-.337-1.177-.758-2.437-1.348-3.614.506-1.092 1.095-2.185 1.601-3.361v-.168c0-.168-.169-.336-.337-.336-1.348.084-2.781.084-4.213.168v-2.437c.084 0 .084.084.169.084.421.336.926.504 1.348.588.927.168 1.938-.168 2.696-.84.253-.168.505-.504.59-.925 0-.168 0-.42-.084-.588a1.291 1.291 0 00-.338-.504c-.505-.42-1.095-.84-1.769-.924-.674-.168-1.264 0-1.938.252l-.505.252c.084-.588.168-1.093.252-1.597l.422.42c.421.337.926.589 1.348.673.927.168 2.022-.084 2.78-.673.253-.168.59-.504.759-.84 0-.168 0-.42-.085-.588a1.28 1.28 0 00-.337-.504c-.421-.505-1.011-.925-1.685-1.009-.758-.168-1.348-.168-2.022.084l-.506.252c.337-.672.674-1.344 1.264-2.1.085.168.253.336.337.504.253.42.674.756 1.096.924.927.504 1.938.42 2.864.084l-.084-.084c.337 0 .674-.252.843-.588.084-.168.084-.42.084-.588 0-.084-.084-.252-.169-.421zm-5.392 3.026c.506-.168.927-.252 1.432-.168.422.084.927.336 1.264.672l.253.252c0 .084.084.168.084.252 0 .252-.084.504-.252.672-.843.252-1.686.336-2.275.084-.337-.168-.675-.336-.927-.588-.253-.168-.422-.336-.506-.588.337-.336.59-.504.927-.588zm-.421-3.866c-.169 0-.422-.084-.674-.168-.422-.168-.843-.336-1.096-.672a3.946 3.946 0 01-.758-1.009c-.253-.504-.169-.672 0-.924.084-.084.169-.168.337-.168h.253c.084 0 .253.084.337.084.421.084.842.336 1.095.588.337.252.674.672.843 1.009.084.168.168.42.253.672 0 .084 0 .084.084.168-.084.168-.253.252-.337.42h-.337zm-1.938 4.034c-.253 0-.506 0-.759-.084-.505-.084-.926-.252-1.263-.505-.422-.252-.674-.588-.927-.924-.084-.168-.169-.42-.253-.588 0-.168 0-.252.084-.336.085-.084.085-.168.253-.168h.674c.421.084.843.168 1.18.42.421.168.758.504.927.924l.252.504c0 .253-.084.505-.168.757zm-.843 4.285l-.168.084c-.085.085-.253.085-.337.169a1.596 1.596 0 01-.674.168c-.506.084-.927 0-1.348-.084-.422-.084-.843-.253-1.096-.589-.168-.168-.337-.336-.421-.504v-.336c.084-.084.084-.168.253-.252.252-.084.421-.168.674-.252a2.214 2.214 0 011.264-.084c.421.084.842.336 1.179.588.253.168.421.336.59.504l.253.252.084.084v.168l-.253.084zm5.056 14.79c-.169 1.177-.674 2.353-1.601 3.026-.759.672-1.938.924-3.033 1.008-.085 0-.169-.084-.253-.084-1.18 0-2.528-.336-3.371-1.008-.926-.757-1.432-1.849-1.6-3.026-.169-1.176 0-2.521.337-3.697.337-1.261.758-2.521 1.263-3.614a.253.253 0 000-.336l-1.6-3.025c1.853-.084 3.707-.084 5.561-.168h.084c1.432.084 2.78.084 4.213.168-.506 1.008-1.011 2.017-1.601 3.025-.084.168-.084.336 0 .42.59 1.093.927 2.437 1.264 3.614a11.23 11.23 0 01.337 3.697zm-2.781-15.462c.506-.168.927-.252 1.433-.252.505.084.926.252 1.348.588.084.084.168.084.252.168.085.084.169.168.169.252.084.169 0 .421-.169.673-.758.336-1.6.42-2.443.252-.421-.084-.758-.252-1.011-.504-.169-.168-.337-.336-.506-.421v-.084c.337-.252.674-.42.927-.672zm5.561-5.294c-.927 0-1.685-.168-2.359-.588a3.978 3.978 0 01-.843-.841c-.168-.168-.252-.336-.337-.588.337-.168.759-.252 1.096-.336.505-.084 1.011 0 1.432.168.421.252.843.588 1.095.925.085.084.169.168.169.252.084.084.084.252.084.336 0 .336-.084.504-.337.672z" fill="#64CA43"/><path d="M242.435 133.109s4.802 9.16 4.128 17.9l-.758 2.268-15.251-21.008" fill="#CDC9CD"/><path d="M242.435 133.109s4.802 9.16 4.128 17.9l-.758 2.268-15.251-21.008" stroke="#2271B1"/><path d="M224.067 131.428s1.095 21.765 2.274 25.463l4.55-.084c.253-7.648 2.865-17.395 3.118-27.227l-9.942 1.848zm9.352-39.832c2.528-.336 9.437 8.32 10.701 11.597 1.264 3.361-6.994 5.294-6.994 5.294" fill="#CDC9CD"/><path d="M233.419 91.596c2.528-.336 9.437 8.32 10.701 11.597 1.264 3.361-6.994 5.294-6.994 5.294m-13.059 22.941s1.095 21.765 2.274 25.463l4.55-.084c.253-7.648 2.865-17.395 3.118-27.227l-9.942 1.848z" stroke="#2271B1"/><path d="M222.213 87.227c1.095.252 2.359-.084 2.359-.084.084 0 .084.084.084.084l-1.938 2.017-.505-2.185" fill="#2271B1"/><path d="M222.213 87.227c1.095.252 2.359-.084 2.359-.084.084 0 .084.084.084.084l-1.938 2.017-.505-2.185" stroke="#2271B1" stroke-width=".876" stroke-miterlimit="10"/><path d="M228.111 93.193h-5.056l-.842-11.596h5.898v11.596z" fill="#CDC9CD"/><path d="M223.561 74.034c-2.612-.085-4.971 1.092-5.308 3.445-.337 2.017-2.022 2.437-2.107 3.53 0 .756 1.348.924 1.517 1.68.59 2.521 2.443 4.37 5.308 4.538.674 0 1.011 0 1.601-.168" fill="#CDC9CD"/><path d="M223.561 74.034c-2.612-.085-4.971 1.092-5.308 3.445-.337 2.017-2.022 2.437-2.107 3.53 0 .756 1.348.924 1.517 1.68.59 2.521 2.443 4.37 5.308 4.538.674 0 1.011 0 1.601-.168" stroke="#2271B1" stroke-linecap="round"/><path d="M219.432 83.11c-.337.84-1.179 1.176-1.179 1.176" stroke="#2271B1" stroke-miterlimit="10" stroke-linecap="round" stroke-linejoin="round"/><path d="M219.095 80.504a.362.362 0 00.337-.336v-.672a.361.361 0 00-.337-.336c-.168 0-.337.168-.337.336v.672c-.084.168.085.336.337.336z" fill="#2271B1"/><path d="M222.466 90c7.077-2.269 10.026-.588 12.723 3.445 4.381 6.639 1.853 8.32 3.454 14.37 1.601 6.051 5.308 8.656 4.634 25.883h-20.221s-1.938-19.916-1.349-25.715L222.466 90zm20.98 60.84s4.718 8.236 6.235 7.9c.927-.168-.59-4.202-1.096-6.051-.337-1.344-.674-2.185-2.022-2.017l-3.117.168zM226.089 155.966c-1.096.336-4.466 1.009-5.477 1.345-.843.252-.674 1.512.253 1.512h9.1c1.011 0 1.853-.924 1.685-1.932l-.169-1.009-5.392.084z" fill="#2FB41F"/><path d="M218.337 97.31s-1.348-1.008-2.443-2.856c-1.601-2.857-5.73-7.731-6.741-6.387-1.011 1.26.758 5.799 2.275 6.555 1.095 3.613 6.909 15.714 10.364 14.79 3.454-.925 6.235-19.328 1.432-19.076-4.803.252-5.14 10.84-5.14 10.84" fill="#CDC9CD"/><path d="M218.337 97.31s-1.348-1.008-2.443-2.856c-1.601-2.857-5.73-7.731-6.741-6.387-1.011 1.26.758 5.799 2.275 6.555 1.095 3.613 6.909 15.714 10.364 14.79 3.454-.925 6.235-19.328 1.432-19.076-4.803.252-5.14 10.84-5.14 10.84" stroke="#2271B1" stroke-linecap="round" stroke-linejoin="round"/><path d="M235.273 85.546c-.506-.84-1.096-1.513-1.77-2.017a3.574 3.574 0 01-1.179-1.932c-.169-1.093-.506-2.101-1.011-2.858-.674-1.008-1.938-1.848-3.202-2.184-1.18-2.017-2.191-2.353-3.623-2.774-2.359-.756-4.634.673-4.634.673-.337 2.689.758 5.63 3.201 5.798-.421 2.017.759 4.79 3.034 5.462-.253 1.513.084 3.362 1.095 4.958 1.854 3.025 5.224 4.286 7.415 2.941 2.275-1.512 2.527-5.042.674-8.067z" fill="#2271B1"/></svg>