<svg width="360" height="200" fill="none" xmlns="http://www.w3.org/2000/svg"><rect width="360" height="200" rx="8" fill="#F4F8FD"/><path d="M75.23 154.692c12.623-.692 25.36-.807 37.983-.923l19.049-.115h19.049l37.984.231c12.623.115 25.361.23 37.984.692.229 0 .459.231.459.461 0 .231-.23.462-.459.462-12.623.462-25.361.577-37.984.692l-37.984.231h-19.049l-19.049-.115c-12.623-.116-25.36-.347-37.983-.923-.115 0-.23-.116-.23-.231 0-.346.115-.462.23-.462zm174.999 0c2.869-.577 5.738-.807 8.607-.923l4.246-.115h4.246c2.869 0 5.738.115 8.606.231 2.869.115 5.738.23 8.607.692.229 0 .459.231.459.577 0 .231-.23.346-.459.461-2.869.462-5.738.577-8.607.693-2.868.115-5.737.115-8.606.23h-4.246l-4.246-.115c-2.869-.115-5.738-.346-8.607-.923-.114 0-.229-.115-.229-.231 0-.461.115-.577.229-.577z" fill="#C6DEF6"/><path d="M127.787 135.308V68.615h80.442v66.693h-76.081" fill="#EFF3F7"/><path d="M240.475 68.846l1.033 66.116-33.164.115v-66.23h32.131zM127.787 68.27V52.576h112.688v15.577H133.984" fill="#C6DEF6"/><path d="M192.508 135.192h-55.311V98.154h60.934v37.038h-5.623zM198.131 94h-60.934V78.769h60.934v15.23z" fill="#fff"/><path d="M185.164 87.77c-.803.23-1.607.576-2.41.922-.688.462-1.492.808-2.18 1.27-.459.346-1.033.692-1.607 1.038.459-.577 1.033-1.27 1.492-1.846.574-.692 1.148-1.5 1.607-2.308.573-.808 1.032-1.615 1.377-2.538 0-.116 0-.116-.115-.116h-.115a11.21 11.21 0 00-2.065 1.962c-.574.692-1.148 1.5-1.722 2.192-.459.692-1.033 1.385-1.492 2.192.23-.807.574-1.615.804-2.538l.688-2.77c.23-.922.344-1.845.344-2.884v-.115h-.114c-.459.807-.918 1.73-1.148 2.538-.344.923-.574 1.846-.803 2.654-.23.692-.344 1.385-.459 2.077 0-.808-.115-1.73-.115-2.538-.115-1.039-.229-1.962-.344-3-.115-1.039-.344-1.962-.574-3 0-.116-.115-.231-.229-.116-.115 0-.115.115-.115.23-.115 1.04-.115 2.078-.115 3 0 1.04.115 1.962.115 3 .115 1.04.115 1.962.229 3a13.657 13.657 0 00-.918-1.845c-.344-.693-.803-1.5-1.147-2.193l-1.377-2.076c-.115-.116-.23-.116-.345 0-.114 0-.114.115-.114.23.229.808.459 1.616.803 2.423.344.808.689 1.5 1.033 2.308.229.346.344.692.574 1.038-.574-.576-1.148-1.269-1.722-1.846-.803-.692-1.492-1.5-2.295-2.192-.803-.692-1.606-1.385-2.524-1.962-.115-.115-.23 0-.345.116v.23c.574.924 1.263 1.731 1.951 2.424.689.807 1.492 1.5 2.18 2.307.689.693 1.492 1.5 2.296 2.193l.114.115c-.459-.23-.918-.461-1.377-.577-.688-.23-1.377-.577-2.18-.808-.689-.23-1.492-.461-2.18-.576-.115 0-.23.115-.23.23 0 .116 0 .116.115.231.574.462 1.262.808 1.951 1.154.688.346 1.377.692 2.065.923.689.346 1.377.577 2.181.808.688.23 1.377.346 2.18.461h.344c.803-.346 1.607-.692 2.295-1.038.689-.462 1.492-.808 2.181-1.27l2.065-1.384a9.153 9.153 0 001.951-1.73v-.116c-.344.115-.459.115-.459.115z" fill="#64CA43"/><path d="M244.262 68.5c-9.983 1.038-19.967 1.038-29.951 1.154l-29.95.346H154.41c-9.984 0-19.967.115-29.951-.808v-.576c9.984-1.039 19.967-1.039 29.951-1.154l29.951-.347h29.95c9.984 0 19.968-.115 29.951.808v.577z" fill="#2271B1"/><path d="M163.59 120.538c-1.262.693-2.41 1.5-3.328 2.539l.345-1.269c.459-1.962 1.147-3.923 1.836-5.885l-.345-.231c-.688.808-1.262 1.731-1.606 2.769-.459 1.039-.803 1.962-1.033 3-.229 1.039-.459 2.077-.574 3.231v.923c-.229.693-.344 1.616-.115 2.308h.23l.115-.115v.115h.229c.115-.577.345-1.038.459-1.615.115-.116.115-.231.23-.347.344-.576.803-1.153 1.147-1.73.459-.577.918-1.039 1.492-1.616.574-.577 1.033-1.038 1.492-1.73-.23 0-.574-.347-.574-.347zm28.23-12c-.574-1.038-1.492-2.307-3.213-2.884-.689-.231-1.492-.346-2.296-.346.345-.462.689-.808 1.033-1.27l-.344-.346c-.689.577-1.262 1.154-1.951 1.731a6.578 6.578 0 00-1.606.577c-.23-1.154-.689-2.654-2.066-3.808-.918-.807-2.18-1.269-3.328-1.384-1.262-.116-2.41.807-2.639 2.077 0 .346 0 .576.115.923a5.772 5.772 0 002.065 3.115c1.148.923 2.64 1.5 4.131 1.5.345 0 .689 0 1.033-.115-1.147 1.73-2.065 3.577-2.869 5.538l-.115.115c-.229-1.153-.803-3.23-2.868-4.384-1.263-.692-2.64-1.039-4.132-.808-1.147.116-1.95 1.154-1.836 2.423 0 .116 0 .346.115.462.459 1.384 1.377 2.538 2.64 3.346 1.606.923 3.442 1.154 5.163.577 0 .115.115.231.23.346-.574 1.962-.918 3.923-1.148 5.885-.229-.693-1.606-3.231-4.475-3.808-1.377-.231-2.869 0-4.131.577-1.033.577-1.492 1.846-.918 2.884.115.116.115.231.229.347.918 1.153 2.181 1.961 3.672 2.192.345.115.804.115 1.263.115 1.377 0 2.639-.461 3.787-1.154l-.115.231.229.346c.115.231.23.347.345.577-.115 1.731 0 3.577.229 5.308h.23c.229-1.5.344-2.885.459-4.385 1.032.923 2.41 1.385 3.901 1.385 1.377 0 2.64-.462 3.787-1.154.574-.346.918-.923.918-1.615 0-.693-.229-1.269-.688-1.731-.804-.808-2.181-1.731-4.017-1.731a6.043 6.043 0 00-3.442 1.039c.229-1.385.459-2.77.918-4.154 1.033.923 2.295 1.5 3.557 1.615h.574c1.147 0 2.295-.346 3.328-.923a2.266 2.266 0 001.033-1.5c.114-.692-.115-1.269-.574-1.731-.803-.807-2.066-1.846-3.787-1.961-.918-.116-1.951.115-2.869.461a24.37 24.37 0 011.721-3.461c.115-.116.115-.231.23-.462.688 1.039 1.836 1.962 3.098 2.308a6.462 6.462 0 002.066.346c.688 0 1.262-.115 1.836-.231.574-.23 1.147-.692 1.377-1.269.574-.461.459-1.154.115-1.731zm-17.443 5.654c-1.033-.577-1.721-1.5-2.18-2.654-.115-.461.114-1.038.573-1.269h.919c.918 0 1.836.231 2.639.692 1.721 1.039 2.18 3 2.295 3.808-1.377.346-2.984.116-4.246-.577zm-1.721 8.885a4.888 4.888 0 01-2.984-1.846c-.344-.462-.229-1.039.115-1.385l.115-.115c.803-.346 1.606-.577 2.524-.577.344 0 .574 0 .918.115 1.951.346 3.099 2.077 3.443 2.885-1.033.923-2.639 1.269-4.131.923zm10.098-1.5c1.492 0 2.525.692 3.213 1.384.344.347.459 1.039 0 1.385 0 0-.115.115-.229.115-.804.693-1.836 1.039-2.984 1.039-1.836 0-2.984-.923-3.672-1.731 0-.231.115-.461.115-.692.688-.577 1.951-1.5 3.557-1.5zm1.607-7.616c1.377.116 2.524.924 3.098 1.616.23.231.23.461.23.808 0 .346-.23.576-.459.692a5.62 5.62 0 01-3.328.692c-1.263-.115-2.525-.808-3.328-1.731v-.115c.115-.346.229-.808.344-1.154 1.033-.577 2.18-.923 3.443-.808zm-1.951-6.461c-1.492.231-2.984-.231-4.131-1.154-.804-.692-1.377-1.5-1.607-2.538-.229-.693.23-1.385.803-1.5h.459c1.033.115 1.951.461 2.755 1.153 1.606 1.154 1.721 3.116 1.721 4.039zm8.492 2.423a1.178 1.178 0 01-.689.577c-1.033.346-2.18.346-3.328-.115-1.147-.347-2.18-1.27-2.754-2.308l1.033-1.385c1.033-.231 2.065-.231 2.984.116 1.377.461 2.18 1.5 2.639 2.307.229.231.229.577.115.808z" fill="#64CA43"/><path d="M279.377 105.654c-.115-.577-.574-1.038-1.147-1.038-2.41 0-4.82-.231-7.23-.577a37.63 37.63 0 01-7.115-1.731 34.063 34.063 0 01-6.541-3.116c-2.065-1.269-3.787-2.884-5.278-4.73l-.115-.116c-.459-.346-1.148-.346-1.492.116-1.377 1.615-3.213 3.23-4.934 4.615a30.046 30.046 0 01-5.853 3.462 32.16 32.16 0 01-6.426 2.077c-2.18.461-4.476.577-6.771.346-.459 0-.803.346-.918.692a79.543 79.543 0 00-.688 16.5c.344 5.423 1.377 10.962 3.328 16.039 1.951 5.192 4.934 9.923 8.951 13.73 4.016 3.808 8.95 6.346 14.229 7.731h.115c2.869-.115 5.623-.923 8.147-2.077 2.525-1.154 5.05-2.654 7.115-4.615 4.361-3.693 7.689-8.539 9.869-13.846 2.295-5.308 3.213-10.962 3.557-16.616.345-5.654 0-11.307-.803-16.846z" fill="#2FB41F"/><path d="M267.787 116.962c-.115-.116-.344-.231-.574-.116-1.721 1.385-3.328 3-4.82 4.5l-4.475 4.846c-2.639 3-5.279 5.885-7.918 8.885-1.148-.923-2.18-1.731-3.328-2.654l-2.18-1.731c-.804-.577-1.377-1.269-2.41-1.384h-.459c-.459.23-.689.692-.459 1.154.344 1.038 1.147 1.384 1.836 2.076l2.066 1.731c1.377 1.154 2.754 2.308 4.245 3.462.574.461 1.263.346 1.722-.116 2.869-3.346 5.737-6.577 8.606-9.923 1.377-1.73 2.869-3.346 4.246-5.077 1.377-1.73 2.64-3.461 3.787-5.423.23.116.115-.115.115-.23z" fill="#fff"/><path d="M232.328 154.808c-5.738-.231-11.476-.462-17.213-.577-5.738-.116-11.476-.231-17.213-.231-11.476-.115-22.836-.115-34.312-.115l-34.311-.116H107.82c-.804 0-1.263 0-1.836-.115-.574-.116-1.033-.346-1.492-.692-.918-.693-1.492-1.616-1.722-2.77 0-.23-.114-.577-.114-.807v-1.847l60.705-.115h5.508v2.769c0 .346.229.577.574.577h28.114c.345 0 .574-.231.574-.577v-3.115c4.016 0 7.918-.115 11.935-.231 5.163-.115 10.327-.231 15.491-.461.115 0 .23-.116.23-.347a.247.247 0 00-.23-.23c-5.164-.231-10.328-.346-15.491-.462-5.164-.115-10.328-.231-15.492-.231C184.246 145 173.918 145 163.59 145l-62.197-.231c-.688 0-1.377.577-1.377 1.385v3.231c0 .461 0 .923.115 1.384.574 2.654 2.525 4.846 5.164 5.539.803.23 1.836.23 2.525.23h21.459l34.311-.115c11.476 0 22.836 0 34.312-.115 5.737 0 11.475-.116 17.213-.231 5.737-.115 11.475-.231 17.213-.577.115 0 .229-.115.229-.346 0-.231-.114-.346-.229-.346zm19.049-114.693L221.77 40h-97.655c-.689 0-1.377.115-2.066.346-1.377.346-2.639 1.039-3.787 1.962-2.18 1.846-3.557 4.615-3.442 7.5V145h2.524V49.923c0-3.346 2.181-6.23 5.279-7.038.459-.116 1.033-.231 1.606-.231h97.656l28.574-.116.229 22.731.115 11.885.23 11.885c0 .23.229.346.459.346.115 0 .344-.116.344-.347l.23-11.884.114-11.885.23-23.769c-.115-.808-.459-1.27-1.033-1.385z" fill="#5198D9"/><path d="M137.197 130.692c15.606-6.461 49.229-2.192 60.246 4.731l-60.246-.231v-4.5z" fill="#64CA43"/></svg>