<?xml version="1.0" encoding="UTF-8"?>
<svg width="12px" height="12px" viewBox="0 0 12 12" version="1.1" xmlns="http://www.w3.org/2000/svg" xmlns:xlink="http://www.w3.org/1999/xlink">
    <!-- Generator: Sketch 55.2 (78181) - https://sketchapp.com -->
    <title>check-circle-o 2</title>
    <desc>Created with Sketch.</desc>
    <g id="界面2" stroke="none" stroke-width="1" fill="none" fill-rule="evenodd">
        <g id="违规检测-未发现违规风险" transform="translate(-512.000000, -321.000000)" fill="#24BE48" fill-rule="nonzero">
            <g id="编组-10" transform="translate(480.000000, 178.000000)">
                <g id="编组-11" transform="translate(32.000000, 109.000000)">
                    <g id="编组-6" transform="translate(0.000000, 30.000000)">
                        <g id="check-circle-o-2" transform="translate(0.000000, 4.000000)">
                            <g id="check-circle-o">
                                <path d="M8.45273438,3.58125 L4.61484375,7.43085937 L3.6140625,5.67890625 C3.49804687,5.47617187 3.24140625,5.40585937 3.03867187,5.521875 C2.8359375,5.63789062 2.765625,5.89453125 2.88164062,6.09726563 L4.15664062,8.3296875 C4.23398437,8.465625 4.37695312,8.54296875 4.5234375,8.54296875 C4.59492187,8.54296875 4.66640625,8.52539063 4.73203125,8.48789063 C4.76953125,8.465625 4.80351562,8.43984375 4.83164062,8.409375 C4.8328125,8.40820312 4.83515625,8.40585938 4.83632812,8.4046875 L9.04921875,4.17890625 C9.21328125,4.01367187 9.21328125,3.74648437 9.04804687,3.58242187 C8.88398438,3.41601562 8.61796875,3.41601562 8.45273438,3.58125 Z M6,0 C2.6859375,0 0,2.6859375 0,6 C0,9.3140625 2.6859375,12 6,12 C9.3140625,12 12,9.3140625 12,6 C12,2.6859375 9.3140625,0 6,0 Z M9.64570313,9.64570313 C9.17226562,10.1191406 8.6203125,10.4917969 8.00625,10.7507812 C7.37109375,11.0203125 6.69609375,11.15625 6,11.15625 C5.30390625,11.15625 4.62890625,11.0203125 3.99375,10.7519531 C3.3796875,10.4917969 2.82890625,10.1203125 2.35429688,9.646875 C1.88085938,9.1734375 1.50820312,8.62148438 1.24921875,8.00742188 C0.9796875,7.37109375 0.84375,6.69609375 0.84375,6 C0.84375,5.30390625 0.9796875,4.62890625 1.24804688,3.99375 C1.50820312,3.3796875 1.8796875,2.82890625 2.353125,2.35429688 C2.8265625,1.88085938 3.37851563,1.50820312 3.99257813,1.24921875 C4.62890625,0.9796875 5.30390625,0.84375 6,0.84375 C6.69609375,0.84375 7.37109375,0.9796875 8.00625,1.24804688 C8.6203125,1.50820312 9.17109375,1.8796875 9.64570313,2.353125 C10.1191406,2.8265625 10.4917969,3.37851563 10.7507812,3.99257813 C11.0203125,4.62890625 11.15625,5.30390625 11.15625,6 C11.15625,6.69609375 11.0203125,7.37109375 10.7519531,8.00625 C10.4917969,8.6203125 10.1203125,9.17226562 9.64570313,9.64570313 Z" id="Shape"></path>
                            </g>
                        </g>
                    </g>
                </g>
            </g>
        </g>
    </g>
</svg>