<?xml version="1.0" standalone="no"?><!DOCTYPE svg PUBLIC "-//W3C//DTD SVG 1.1//EN" "http://www.w3.org/Graphics/SVG/1.1/DTD/svg11.dtd"><svg t="1561778039845" class="icon" viewBox="0 0 1024 1024" version="1.1" xmlns="http://www.w3.org/2000/svg" p-id="3973" xmlns:xlink="http://www.w3.org/1999/xlink" width="200" height="200"><defs><style type="text/css"></style></defs><path d="M504.322879 1.535424L104.088967 161.731351c-7.677121 3.070848-12.795202 10.74797-12.795202 19.448706v322.950894c0 230.82544 150.471573 420.706235 370.549044 505.666375 50.157191 18.936899 51.180807 18.936899 101.337998 0 220.589279-84.448332 370.549044-274.840935 370.549044-505.666375V180.668249c0-8.700737-5.118081-15.86605-12.795201-19.448706L519.677121 1.535424c-5.118081-2.047232-10.236161-2.047232-15.354242 0zM449.047607 680.704736l-145.353492-146.888917c-2.55904-2.55904-2.55904-6.141697 0-8.700737l45.03911-45.550919c2.55904-2.55904 6.141697-2.55904 8.700737 0l94.172686 95.196302c2.55904 2.55904 6.141697 2.55904 8.700737 0l248.226915-250.785955c2.55904-2.55904 6.141697-2.55904 8.700737 0l45.03911 45.550918c2.55904 2.55904 2.55904 6.141697 0 8.700737l-299.407722 301.966763c-3.582657 4.094465-9.724353 4.094465-13.818818 0.511808z" p-id="3974"></path></svg>