<?xml version="1.0" standalone="no"?><!DOCTYPE svg PUBLIC "-//W3C//DTD SVG 1.1//EN" "http://www.w3.org/Graphics/SVG/1.1/DTD/svg11.dtd"><svg t="1561773426332" class="icon" viewBox="0 0 1024 1024" version="1.1" xmlns="http://www.w3.org/2000/svg" p-id="630" xmlns:xlink="http://www.w3.org/1999/xlink" width="200" height="200"><defs><style type="text/css"></style></defs><path d="M515.938462 356.430769L734.523077 137.846154c11.815385-11.815385 11.815385-29.538462 0-41.353846l-47.261539-47.261539c-11.815385-11.815385-29.538462-11.815385-41.353846 0L427.323077 267.815385l88.615385 88.615384z m240.246153 248.123077l218.584616-218.584615c11.815385-11.815385 11.815385-29.538462 0-41.353846l-47.261539-47.261539c-11.815385-11.815385-29.538462-11.815385-41.353846 0L667.569231 515.938462l88.615384 88.615384z m-31.507692 181.169231c3.938462-3.938462 5.907692-9.846154 7.876923-15.753846 1.969231-7.876923 0-15.753846-3.938461-21.661539-1.969231-1.969231-1.969231-3.938462-3.938462-3.938461L281.6 301.292308c-3.938462-5.907692-13.784615-7.876923-21.661538-7.876923-7.876923 0-15.753846 3.938462-21.661539 9.846153-3.938462 3.938462-7.876923 5.907692-11.815385 9.846154-1.969231 1.969231-3.938462 5.907692-5.907692 7.876923-1.969231 3.938462-5.907692 5.907692-7.876923 9.846154-1.969231 3.938462-5.907692 7.876923-7.876923 11.815385-3.938462 3.938462-5.907692 9.846154-7.876923 15.753846-3.938462 5.907692-5.907692 11.815385-7.876923 17.723077-3.938462 5.907692-5.907692 13.784615-7.876923 21.661538-3.938462 7.876923-5.907692 15.753846-7.876923 23.63077-1.969231 9.846154-5.907692 17.723077-7.876923 27.56923-1.969231 9.846154-3.938462 19.692308-5.907693 31.507693-1.969231 11.815385-3.938462 23.630769-5.907692 33.476923-1.969231 11.815385-3.938462 25.6-3.938462 37.415384-1.969231 13.784615-1.969231 27.569231-1.96923 43.323077v47.261539c0 17.723077 0 33.476923 1.96923 51.2 0 17.723077 1.969231 37.415385 3.938462 55.138461 0 5.907692 1.969231 9.846154 1.969231 15.753846H157.538462L55.138462 866.461538c-15.753846 7.876923-15.753846 27.569231-5.907693 39.384616l72.861539 72.861538c11.815385 11.815385 29.538462 11.815385 41.353846 0l102.4-102.4c37.415385 3.938462 72.861538 5.907692 110.276923 5.907693 31.507692 0 61.046154 0 92.553846-1.969231 25.6-1.969231 51.2-3.938462 74.830769-9.846154 19.692308-3.938462 39.384615-7.876923 59.076923-13.784615 15.753846-3.938462 31.507692-9.846154 45.292308-17.723077 11.815385-5.907692 23.630769-11.815385 33.476923-17.723077 13.784615-7.876923 27.569231-19.692308 39.384616-31.507693l3.938461-3.938461z" p-id="631"></path></svg>