<?xml version="1.0" standalone="no"?><!DOCTYPE svg PUBLIC "-//W3C//DTD SVG 1.1//EN" "http://www.w3.org/Graphics/SVG/1.1/DTD/svg11.dtd"><svg t="1561774486251" class="icon" viewBox="0 0 1024 1024" version="1.1" xmlns="http://www.w3.org/2000/svg" p-id="1430" xmlns:xlink="http://www.w3.org/1999/xlink" width="200" height="200"><defs><style type="text/css"></style></defs><path d="M631.386187 333.504587c-46.972477-32.880734-103.33945-42.275229-159.706422-32.880734-56.366972 14.091743-103.33945 46.972477-136.220183 93.944954-32.880734 46.972477-42.275229 103.33945-32.880734 159.706422 18.788991 103.33945 108.036697 173.798165 211.376146 173.798165 9.394495 0 23.486239 0 32.880734-4.697247h9.394496c84.550459-18.788991 150.311927-84.550459 169.100917-169.100918 4.697248-28.183486 4.697248-56.366972 0-84.550458-14.091743-56.366972-46.972477-103.33945-93.944954-136.220184z m0 201.981652c-9.394495 46.972477-42.275229 79.853211-89.247706 93.944954h-4.697248c-65.761468 14.091743-126.825688-28.183486-140.917431-93.944954-4.697248-32.880734 0-61.06422 18.788991-89.247707 18.788991-28.183486 46.972477-42.275229 75.155963-51.669725h23.486238c56.366972 0 108.036697 37.577982 117.431193 93.944954v46.972478z m347.59633 42.275229l-56.366972-32.880734v-32.880734-28.183486l56.366972-32.880734c37.577982-23.486239 46.972477-70.458716 28.183487-103.33945l-103.33945-178.495413c-23.486239-37.577982-70.458716-46.972477-103.339449-28.183486l-61.064221 32.880734c-14.091743-14.091743-28.183486-23.486239-46.972477-32.880734V75.155963C692.450407 37.577982 659.569673 0 617.294444 0H410.615545c-42.275229 0-79.853211 32.880734-79.853211 75.155963V140.917431c-14.091743 9.394495-32.880734 18.788991-46.972477 28.183486l-61.06422-32.880734c-32.880734-18.788991-79.853211-9.394495-103.33945 28.183487L16.046738 347.59633c-18.788991 32.880734-9.394495 79.853211 28.183486 103.33945l56.366972 32.880734v61.06422l-56.366972 32.880734c-37.577982 23.486239-46.972477 70.458716-28.183486 103.339449l103.339449 178.495413c23.486239 37.577982 70.458716 46.972477 103.33945 28.183487l56.366972-32.880734c14.091743 9.394495 32.880734 23.486239 51.669725 28.183486v65.761468c0 42.275229 32.880734 75.155963 75.155963 75.155963H617.294444c42.275229 0 75.155963-32.880734 75.155963-75.155963v-65.761468c18.788991-9.394495 32.880734-18.788991 46.972477-28.183486l56.366973 32.880734c37.577982 18.788991 84.550459 9.394495 103.339449-28.183487l103.33945-178.495413c28.183486-37.577982 14.091743-84.550459-23.486239-103.339449z m-112.733945 42.275229l51.669725 28.183486-84.550458 150.311927-46.972478-28.183486c-23.486239-18.788991-56.366972-18.788991-84.550458 0-18.788991 14.091743-32.880734 23.486239-56.366973 32.880734-28.183486 14.091743-42.275229 42.275229-42.275229 70.458715v61.064221H424.707288v-61.064221c0-32.880734-18.788991-56.366972-46.972477-70.458715-18.788991-9.394495-37.577982-18.788991-56.366972-32.880734-23.486239-18.788991-56.366972-18.788991-79.853211-4.697248L194.54215 798.53211l-84.550458-150.311927 51.669725-28.183486c28.183486-14.091743 42.275229-46.972477 37.577981-75.155963v-61.06422c0-32.880734-14.091743-61.06422-42.275229-75.155964L105.294444 375.779817 194.54215 225.46789l46.972478 28.183486c23.486239 18.788991 56.366972 18.788991 84.550458 0 18.788991-14.091743 32.880734-23.486239 51.669725-32.880734 28.183486-14.091743 46.972477-37.577982 46.972477-70.458715V93.944954h173.798165v61.06422c0 28.183486 18.788991 56.366972 46.972477 70.458716 18.788991 9.394495 37.577982 18.788991 56.366973 32.880734 23.486239 18.788991 56.366972 18.788991 79.853211 0l51.669725-28.183486L917.918297 375.779817l-51.669725 28.183486c-28.183486 14.091743-42.275229 46.972477-37.577981 70.458715V535.486239c-4.697248 37.577982 14.091743 70.458716 37.577981 84.550458z" p-id="1431"></path></svg>