<?xml version="1.0" standalone="no"?><!DOCTYPE svg PUBLIC "-//W3C//DTD SVG 1.1//EN" "http://www.w3.org/Graphics/SVG/1.1/DTD/svg11.dtd"><svg t="1561788744115" class="icon" viewBox="0 0 1024 1024" version="1.1" xmlns="http://www.w3.org/2000/svg" p-id="1050" xmlns:xlink="http://www.w3.org/1999/xlink" width="200" height="200"><defs><style type="text/css"></style></defs><path d="M1021.696094 950.403019l-73.554983-147.065968C937.263558 781.535945 915.332457 767.968501 890.929458 767.968501h-28.798819L616.806701 522.644563l17.449285-17.449284c19.797188-19.75319 19.797188-51.965869-0.895964-72.65902-26.536912-26.536912-51.1979-43.006236-77.606817-51.795875-19.02922-6.357739-34.1326-21.46112-40.488339-40.48834-8.831638-26.452915-25.256964-51.111904-51.795875-77.606817L237.174272 36.392507c-46.80408-46.80408-128.72072-47.016072-175.736792 0L36.350509 61.43748C12.92747 84.902518 0 116.091238 0 149.411872c0 33.15064 12.92747 64.339361 36.350509 87.804398l226.25272 226.252721c26.536912 26.536912 51.1979 43.006236 77.606817 51.795875 19.02922 6.357739 34.1326 21.46112 40.488339 40.488339 8.789639 26.452915 25.300962 51.111904 52.605843 78.418784 9.685603 9.685603 22.44108 15.017384 36.052521 15.017384 13.525445 0 26.238924-5.289783 35.83853-14.889389l17.449284-17.449285L767.968501 862.172637v28.798819c0 24.404999 13.567444 46.3341 35.36855 57.255652l147.065968 73.554983A22.327084 22.327084 0 0 0 959.960627 1023.958002a21.45912 21.45912 0 0 0 15.10338-6.229745l42.66425-42.66425a21.413122 21.413122 0 0 0 3.967837-24.660988zM1023.616016 200.481777c-0.425983-7.381697-5.461776-14.421408-11.94551-17.919265-6.655727-3.583853-14.719396-3.455858-21.205131 0.425983l-116.77321 70.013128c-35.454546-18.345248-58.621596-52.733837-62.503436-91.942229l130.384652-78.204792a21.417122 21.417122 0 0 0 10.325576-16.809311 21.423121 21.423121 0 0 0-7.893676-18.089258C905.904844 17.193295 860.722697 0.639974 811.060734 0c-52.861832 0-106.149646 24.488996-146.212003 67.239242-47.614047 50.727919-69.629144 101.029856-67.367237 153.679697 1.237949 28.884815-11.689521 59.091576-36.862488 84.34854-5.077792 5.289783-7.125708 12.799475-5.333781 19.881185a21.169132 21.169132 0 0 0 13.951427 15.145379c32.468668 10.751559 63.271405 31.060726 94.246135 62.077453 12.457489 12.457489 20.863144 27.646866 25.000974 45.224146a21.44712 21.44712 0 0 0 14.933388 15.615359c1.919921 0.553977 3.881841 0.809967 5.84576 0.809967a21.419121 21.419121 0 0 0 15.103381-6.229745l37.502461-37.502461c17.32129 4.309823 33.064644 6.357739 48.766 6.357739 58.493601 0 115.06728-24.404999 155.257632-66.983253 40.700331-43.174229 61.223489-99.70591 57.723633-159.181471zM463.382994 703.587142c-2.261907-7.253702-8.149666-12.885471-15.529363-14.591402-17.109298-4.009836-32.552665-12.543486-44.712166-24.702986-31.486709-31.44471-52.051865-62.547435-62.887421-95.1001a21.365124 21.365124 0 0 0-15.317371-14.037424c-7.167706-1.749928-14.761395 0.469981-20.00918 5.673767l-4.009835 4.053834c-20.949141 20.905143-51.581884 32.42467-87.590408 32.42467C95.698075 597.309501 0 693.005576 0 810.632751c0 7.465694 0.937962 14.6334 1.919921 21.845104l0.681972 5.033794a21.249128 21.249128 0 0 0 11.861514 16.469324c6.485734 3.15787 14.079423 2.815885 20.309167-0.895963l136.826388-82.086633c35.454546 18.345248 58.621596 52.733837 62.503436 91.942229l-142.714146 85.628488a21.253128 21.253128 0 0 0-10.325577 17.449284 21.353124 21.353124 0 0 0 8.917634 18.217253c36.436506 25.896938 78.930763 39.678373 122.960957 39.764369h0.25599c52.989827 0 106.491632-24.87298 146.851976-68.179204 46.974073-50.387933 68.691183-100.305886 66.471274-152.61174-1.151953-27.134887 10.281578-55.165737 32.168681-78.930763a21.121134 21.121134 0 0 0 4.693807-20.691151z" p-id="1051"></path></svg>