<?xml version="1.0" encoding="utf-8"?>
<!-- Generator: Adobe Illustrator 16.0.0, SVG Export Plug-In . SVG Version: 6.00 Build 0)  -->
<!DOCTYPE svg PUBLIC "-//W3C//DTD SVG 1.1//EN" "http://www.w3.org/Graphics/SVG/1.1/DTD/svg11.dtd">
<svg version="1.1" id="图层_1" xmlns="http://www.w3.org/2000/svg" xmlns:xlink="http://www.w3.org/1999/xlink" x="0px" y="0px"
	 width="612px" height="792px" viewBox="0 0 612 792" enable-background="new 0 0 612 792" xml:space="preserve">
<path fill="#E9ECEF" d="M89.25,179.25v433.5h433.5v-433.5H89.25z M497.25,281.25h-76.5v-76.5h76.5V281.25z M318.75,281.25v-76.5
	h76.5v76.5H318.75z M395.25,306.75v76.5h-76.5v-76.5H395.25z M293.25,281.25h-76.5v-76.5h76.5V281.25z M293.25,306.75v76.5h-76.5
	v-76.5H293.25z M191.25,383.25h-76.5v-76.5h76.5V383.25z M191.25,408.75v76.5h-76.5v-76.5H191.25z M216.75,408.75h76.5v76.5h-76.5
	V408.75z M293.25,510.75v76.5h-76.5v-76.5H293.25z M318.75,510.75h76.5v76.5h-76.5V510.75z M318.75,485.25v-76.5h76.5v76.5H318.75z
	 M420.75,408.75h76.5v76.5h-76.5V408.75z M420.75,383.25v-76.5h76.5v76.5H420.75z M191.25,204.75v76.5h-76.5v-76.5H191.25z
	 M114.75,510.75h76.5v76.5h-76.5V510.75z M420.75,587.25v-76.5h76.5v76.5H420.75z"/>
<rect x="216.75" y="204.75" fill="#066690" width="76.5" height="76.5"/>
<rect x="114.75" y="306.75" fill="#066690" width="76.5" height="76.5"/>
<rect x="216.75" y="408.75" fill="#066690" width="76.5" height="76.5"/>
<rect x="114.75" y="510.75" fill="#066690" width="76.5" height="76.5"/>
<rect x="420.75" y="204.75" fill="#066690" width="76.5" height="76.5"/>
<rect x="318.75" y="306.75" fill="#066690" width="76.5" height="76.5"/>
<rect x="420.75" y="408.75" fill="#066690" width="76.5" height="76.5"/>
<rect x="420.75" y="510.75" fill="#8CB0D1" width="76.5" height="76.5"/>
<rect x="114.75" y="204.75" fill="#8CB0D1" width="76.5" height="76.5"/>
<rect x="114.75" y="408.75" fill="#8CB0D1" width="76.5" height="76.5"/>
<rect x="318.75" y="204.75" fill="#8CB0D1" width="76.5" height="76.5"/>
<rect x="216.75" y="306.75" fill="#8CB0D1" width="76.5" height="76.5"/>
<rect x="216.75" y="510.75" fill="#8CB0D1" width="76.5" height="76.5"/>
<rect x="318.75" y="408.75" fill="#8CB0D1" width="76.5" height="76.5"/>
<rect x="420.75" y="306.75" fill="#8CB0D1" width="76.5" height="76.5"/>
<rect x="318.75" y="510.75" fill="#066690" width="76.5" height="76.5"/>
</svg>
